<svg width="120" height="40" viewBox="0 0 120 40" fill="none" xmlns="http://www.w3.org/2000/svg">
<g clip-path="url(#clip0_7044_16136)">
<path d="M110.135 0H9.53498C9.16798 0 8.80498 0 8.43998 0.002C8.13398 0.004 7.82998 0.01 7.52098 0.015C6.8495 0.0223323 6.17956 0.0808351 5.51698 0.19C4.8557 0.302207 4.21515 0.513588 3.61698 0.817C3.01869 1.12335 2.47207 1.52151 1.99698 1.997C1.52023 2.47032 1.12281 3.01732 0.819977 3.617C0.516055 4.21585 0.305296 4.85757 0.194977 5.52C0.0837045 6.18171 0.0238588 6.85105 0.0159766 7.522C0.00597656 7.829 0.00597656 8.137 0.000976562 8.443V31.56C0.00597656 31.87 0.00697656 32.17 0.0159766 32.481C0.0241854 33.152 0.0843654 33.8213 0.195977 34.483C0.305584 35.1461 0.51602 35.7885 0.819977 36.388C1.1231 36.9854 1.52091 37.5297 1.99798 38C2.47073 38.4771 3.01701 38.8751 3.61598 39.179C4.2145 39.4831 4.85533 39.6954 5.51698 39.809C6.17962 39.9179 6.8495 39.9771 7.52098 39.986C7.83098 39.993 8.13398 39.997 8.43998 39.997C8.80598 39.999 9.16798 39.999 9.53498 39.999H110.135C110.495 39.999 110.859 39.999 111.219 39.997C111.523 39.997 111.836 39.993 112.141 39.987C112.811 39.9782 113.48 39.9187 114.141 39.809C114.805 39.6946 115.448 39.4823 116.049 39.179C116.648 38.875 117.193 38.4769 117.666 38C118.142 37.5273 118.541 36.9827 118.848 36.386C119.15 35.7862 119.359 35.1438 119.467 34.481C119.578 33.8192 119.64 33.15 119.652 32.479C119.656 32.169 119.656 31.869 119.656 31.558C119.664 31.194 119.664 30.833 119.664 30.464V9.536C119.664 9.17 119.664 8.806 119.656 8.444C119.656 8.138 119.656 7.83 119.652 7.524C119.64 6.85266 119.578 6.18314 119.467 5.521C119.358 4.8589 119.149 4.21723 118.847 3.618C118.23 2.41511 117.251 1.43588 116.049 0.818C115.448 0.515273 114.805 0.303946 114.141 0.191C113.48 0.0810377 112.811 0.0221968 112.141 0.015C111.836 0.01 111.523 0.004 111.219 0.002C110.859 0 110.494 0 110.135 0Z" fill="#A6A6A6"/>
<path d="M8.44505 39.125C8.14005 39.125 7.84305 39.121 7.54105 39.115C6.91452 39.1066 6.28948 39.0518 5.67105 38.951C5.09489 38.8516 4.53676 38.6669 4.01505 38.403C3.49793 38.1414 3.02625 37.7984 2.61805 37.387C2.20411 36.9801 1.85956 36.5082 1.59805 35.99C1.33311 35.4687 1.14965 34.9099 1.05405 34.333C0.951341 33.7131 0.895848 33.0863 0.888047 32.458C0.881047 32.248 0.873047 31.545 0.873047 31.545V8.445C0.873047 8.445 0.882047 7.753 0.888047 7.55C0.8955 6.92272 0.950659 6.29691 1.05305 5.678C1.14866 5.09952 1.33211 4.53905 1.59705 4.016C1.85776 3.4983 2.20052 3.0262 2.61205 2.618C3.023 2.20578 3.49609 1.86058 4.01405 1.595C4.53469 1.33189 5.09191 1.14851 5.66705 1.051C6.28741 0.949562 6.9145 0.894742 7.54305 0.887L8.44505 0.875H111.214L112.127 0.888C112.75 0.895224 113.371 0.949378 113.985 1.05C114.566 1.14872 115.129 1.33341 115.656 1.598C116.694 2.13288 117.538 2.97908 118.071 4.018C118.332 4.53755 118.512 5.0935 118.606 5.667C118.71 6.29093 118.768 6.9216 118.78 7.554C118.783 7.837 118.783 8.142 118.783 8.444C118.791 8.819 118.791 9.176 118.791 9.536V30.465C118.791 30.828 118.791 31.183 118.783 31.54C118.783 31.865 118.783 32.163 118.779 32.47C118.768 33.091 118.711 33.7103 118.609 34.323C118.516 34.9041 118.334 35.4673 118.069 35.993C117.805 36.5056 117.463 36.9733 117.053 37.379C116.644 37.7927 116.172 38.1377 115.653 38.401C115.128 38.6671 114.566 38.8525 113.985 38.951C113.367 39.0519 112.742 39.1064 112.116 39.114C111.823 39.121 111.516 39.125 111.219 39.125L110.135 39.127L8.44505 39.125Z" fill="black"/>
<path d="M24.769 20.2987C24.7799 19.4643 25.0016 18.6462 25.4135 17.9205C25.8254 17.1947 26.4142 16.5849 27.125 16.1477C26.6734 15.5027 26.0776 14.9718 25.385 14.5972C24.6924 14.2226 23.922 14.0146 23.135 13.9897C21.455 13.8137 19.827 14.9948 18.971 14.9948C18.099 14.9948 16.781 14.0067 15.363 14.0367C14.4453 14.0664 13.5509 14.3332 12.767 14.8113C11.9831 15.2894 11.3364 15.9624 10.89 16.7648C8.95599 20.1128 10.399 25.0337 12.251 27.7407C13.178 29.0658 14.261 30.5458 15.679 30.4938C17.066 30.4358 17.584 29.6087 19.259 29.6087C20.917 29.6087 21.403 30.4938 22.849 30.4608C24.338 30.4358 25.275 29.1287 26.169 27.7907C26.8355 26.8466 27.3485 25.8031 27.689 24.6988C26.824 24.3331 26.0858 23.7208 25.5666 22.9384C25.0473 22.1559 24.7699 21.2378 24.769 20.2987ZM22.037 12.2087C22.8486 11.2348 23.2486 9.98284 23.152 8.71875C21.9119 8.84893 20.7665 9.44165 19.944 10.3787C19.5419 10.8362 19.234 11.3684 19.0377 11.9449C18.8414 12.5215 18.7606 13.131 18.8 13.7387C19.4201 13.7451 20.0336 13.6108 20.5943 13.3458C21.155 13.0807 21.6483 12.692 22.037 12.2087Z" fill="white"/>
<path d="M42.3022 27.1401H37.5702L36.4332 30.4961H34.4282L38.9122 18.0781H40.9952L45.4782 30.4961H43.4392L42.3022 27.1401ZM38.0592 25.5901H41.8112L39.9612 20.1441H39.9102L38.0592 25.5901ZM55.1602 25.9701C55.1602 28.7831 53.6542 30.5901 51.3812 30.5901C50.8058 30.6201 50.2335 30.4875 49.7299 30.2076C49.2262 29.9277 48.8115 29.5116 48.5332 29.0071H48.4902V33.4911H46.6302V21.4421H48.4302V22.9481H48.4632C48.7543 22.4457 49.1761 22.0317 49.6838 21.7499C50.1914 21.4682 50.7659 21.3293 51.3462 21.3481C53.6442 21.3481 55.1602 23.1641 55.1602 25.9701ZM53.2502 25.9701C53.2502 24.1371 52.3022 22.9321 50.8572 22.9321C49.4372 22.9321 48.4822 24.1621 48.4822 25.9701C48.4822 27.7941 49.4372 29.0161 50.8572 29.0161C52.3022 29.0161 53.2502 27.8191 53.2502 25.9701ZM65.1252 25.9701C65.1252 28.7831 63.6192 30.5901 61.3462 30.5901C60.7708 30.6201 60.1985 30.4875 59.6949 30.2076C59.1912 29.9277 58.7765 29.5116 58.4982 29.0071H58.4552V33.4911H56.5962V21.4421H58.3952V22.9481H58.4292C58.7203 22.4457 59.1421 22.0317 59.6497 21.7499C60.1574 21.4682 60.7319 21.3293 61.3122 21.3481C63.6102 21.3481 65.1252 23.1641 65.1252 25.9701ZM63.2152 25.9701C63.2152 24.1371 62.2672 22.9321 60.8222 22.9321C59.4022 22.9321 58.4472 24.1621 58.4472 25.9701C58.4472 27.7941 59.4022 29.0161 60.8222 29.0161C62.2672 29.0161 63.2152 27.8191 63.2152 25.9701ZM71.7102 27.0361C71.8482 28.2681 73.0442 29.0761 74.6802 29.0761C76.2462 29.0761 77.3732 28.2681 77.3732 27.1571C77.3732 26.1931 76.6932 25.6171 75.0832 25.2211L73.4742 24.8331C71.1942 24.2831 70.1352 23.2161 70.1352 21.4851C70.1352 19.3431 72.0022 17.8711 74.6542 17.8711C77.2782 17.8711 79.0772 19.3431 79.1372 21.4851H77.2612C77.1492 20.2461 76.1252 19.4981 74.6272 19.4981C73.1292 19.4981 72.1062 20.2551 72.1062 21.3561C72.1062 22.2341 72.7602 22.7511 74.3612 23.1461L75.7292 23.4821C78.2772 24.0851 79.3352 25.1081 79.3352 26.9251C79.3352 29.2481 77.4852 30.7031 74.5422 30.7031C71.7882 30.7031 69.9282 29.2831 69.8082 27.0361H71.7102ZM83.3462 19.3001V21.4421H85.0682V22.9141H83.3462V27.9051C83.3462 28.6811 83.6912 29.0421 84.4482 29.0421C84.6525 29.0385 84.8564 29.0242 85.0592 28.9991V30.4621C84.719 30.5257 84.3732 30.5545 84.0272 30.5481C82.1942 30.5481 81.4792 29.8591 81.4792 28.1031V22.9141H80.1632V21.4421H81.4792V19.3001H83.3462ZM86.0652 25.9701C86.0652 23.1211 87.7432 21.3311 90.3592 21.3311C92.9842 21.3311 94.6542 23.1211 94.6542 25.9701C94.6542 28.8261 92.9932 30.6081 90.3592 30.6081C87.7262 30.6081 86.0652 28.8261 86.0652 25.9701ZM92.7602 25.9701C92.7602 24.0161 91.8652 22.8621 90.3592 22.8621C88.8532 22.8621 87.9592 24.0241 87.9592 25.9701C87.9592 27.9321 88.8532 29.0761 90.3592 29.0761C91.8652 29.0761 92.7602 27.9321 92.7602 25.9701ZM96.1862 21.4421H97.9592V22.9831H98.0022C98.1224 22.5021 98.4043 22.0771 98.8007 21.7794C99.1971 21.4817 99.6838 21.3294 100.179 21.3481C100.393 21.3472 100.607 21.3704 100.816 21.4171V23.1551C100.546 23.0726 100.264 23.0347 99.9812 23.0431C99.7112 23.0321 99.442 23.0797 99.1922 23.1826C98.9423 23.2855 98.7176 23.4412 98.5336 23.6391C98.3496 23.837 98.2106 24.0723 98.1261 24.329C98.0416 24.5857 98.0137 24.8576 98.0442 25.1261V30.4961H96.1862V21.4421ZM109.384 27.8371C109.134 29.4801 107.534 30.6081 105.486 30.6081C102.852 30.6081 101.217 28.8441 101.217 26.0131C101.217 23.1731 102.861 21.3311 105.407 21.3311C107.913 21.3311 109.487 23.0511 109.487 25.7971V26.4341H103.093V26.5461C103.064 26.8793 103.106 27.215 103.216 27.5308C103.326 27.8466 103.502 28.1353 103.733 28.3778C103.963 28.6204 104.242 28.8111 104.552 28.9373C104.862 29.0636 105.195 29.1225 105.529 29.1101C105.968 29.1511 106.409 29.0494 106.785 28.8201C107.162 28.5907 107.454 28.246 107.619 27.8371H109.384ZM103.102 25.1351H107.628C107.645 24.8355 107.6 24.5357 107.495 24.2545C107.39 23.9734 107.229 23.7168 107.02 23.501C106.812 23.2852 106.561 23.1149 106.284 23.0006C106.006 22.8864 105.708 22.8307 105.408 22.8371C105.106 22.8352 104.806 22.8934 104.525 23.0081C104.245 23.1228 103.991 23.2919 103.776 23.5055C103.562 23.7192 103.392 23.9732 103.276 24.2529C103.161 24.5326 103.101 24.8324 103.102 25.1351Z" fill="white"/>
<path d="M37.8259 8.7315C38.2155 8.70354 38.6065 8.76241 38.9707 8.90385C39.3348 9.04528 39.663 9.26577 39.9316 9.54941C40.2003 9.83304 40.4026 10.1728 40.524 10.544C40.6455 10.9153 40.683 11.309 40.6339 11.6965C40.6339 13.6025 39.6039 14.6985 37.8259 14.6985H35.6709V8.7305L37.8259 8.7315ZM36.5979 13.8545H37.7229C38.0012 13.871 38.2797 13.8252 38.5382 13.7206C38.7966 13.6159 39.0285 13.4549 39.2169 13.2494C39.4053 13.0438 39.5455 12.7989 39.6273 12.5323C39.7091 12.2658 39.7305 11.9844 39.6899 11.7085C39.7276 11.4337 39.7041 11.154 39.6211 10.8894C39.538 10.6247 39.3974 10.3817 39.2095 10.1778C39.0215 9.97386 38.7907 9.81402 38.5337 9.70972C38.2767 9.60542 37.9998 9.55924 37.7229 9.5745H36.5979V13.8545ZM41.6799 12.4445C41.6527 12.1491 41.6874 11.8513 41.7817 11.5701C41.8761 11.2889 42.0281 11.0305 42.228 10.8114C42.4278 10.5922 42.6712 10.4172 42.9426 10.2974C43.2139 10.1776 43.5073 10.1158 43.8039 10.1158C44.1005 10.1158 44.3939 10.1776 44.6652 10.2974C44.9366 10.4172 45.18 10.5922 45.3798 10.8114C45.5797 11.0305 45.7317 11.2889 45.8261 11.5701C45.9204 11.8513 45.9551 12.1491 45.9279 12.4445C45.9574 12.7411 45.9245 13.0406 45.8312 13.3237C45.738 13.6068 45.5864 13.8672 45.3863 14.0882C45.1863 14.3092 44.9422 14.4858 44.6697 14.6066C44.3972 14.7275 44.1025 14.7899 43.8044 14.7899C43.5063 14.7899 43.2116 14.7275 42.9391 14.6066C42.6666 14.4858 42.4225 14.3092 42.2224 14.0882C42.0224 13.8672 41.8708 13.6068 41.7776 13.3237C41.6843 13.0406 41.6504 12.7411 41.6799 12.4445ZM45.0139 12.4445C45.0139 11.4685 44.5749 10.8975 43.8059 10.8975C43.0329 10.8975 42.5989 11.4685 42.5989 12.4445C42.5989 13.4285 43.0329 13.9945 43.8059 13.9945C44.5759 13.9945 45.0139 13.4245 45.0139 12.4445ZM51.5729 14.6985H50.6509L49.7209 11.3815H49.6509L48.7239 14.6985H47.8109L46.5689 10.1955H47.4709L48.2769 13.6315H48.3439L49.2699 10.1955H50.1219L51.0479 13.6315H51.1179L51.9209 10.1955H52.8099L51.5729 14.6985ZM53.8539 10.1955H54.7089V10.9105H54.7749C54.8876 10.6536 55.0777 10.4382 55.3186 10.2945C55.5595 10.1507 55.8393 10.0857 56.1189 10.1085C56.338 10.092 56.5581 10.1251 56.7627 10.2052C56.9673 10.2853 57.1513 10.4104 57.301 10.5713C57.4507 10.7321 57.5623 10.9246 57.6276 11.1344C57.6928 11.3443 57.71 11.5661 57.6779 11.7835V14.6985H56.7889V12.0065C56.7889 11.2825 56.4749 10.9225 55.8169 10.9225C55.6682 10.9156 55.5197 10.941 55.3817 10.9968C55.2437 11.0526 55.1194 11.1377 55.0173 11.246C54.9152 11.3544 54.8377 11.4835 54.7902 11.6246C54.7426 11.7657 54.7262 11.9154 54.7419 12.0635V14.6985H53.8539V10.1955ZM59.0939 8.4375H59.9819V14.6975H59.0939V8.4375ZM61.2179 12.4445C61.1899 12.1488 61.224 11.8504 61.3179 11.5686C61.4119 11.2868 61.5637 11.0277 61.7636 10.808C61.9636 10.5883 62.2072 10.4127 62.4789 10.2926C62.7505 10.1725 63.0443 10.1104 63.3414 10.1104C63.6385 10.1104 63.9323 10.1725 64.2039 10.2926C64.4756 10.4127 64.7192 10.5883 64.9191 10.808C65.1191 11.0277 65.2709 11.2868 65.3648 11.5686C65.4588 11.8504 65.4929 12.1488 65.4649 12.4445C65.4944 12.7411 65.4615 13.0406 65.3682 13.3237C65.2749 13.6068 65.1234 13.8672 64.9234 14.0882C64.7233 14.3092 64.4792 14.4858 64.2067 14.6066C63.9342 14.7275 63.6395 14.7899 63.3414 14.7899C63.0433 14.7899 62.7486 14.7275 62.4761 14.6066C62.2036 14.4858 61.9595 14.3092 61.7594 14.0882C61.5594 13.8672 61.4078 13.6068 61.3146 13.3237C61.2213 13.0406 61.1884 12.7411 61.2179 12.4445ZM64.5509 12.4445C64.5509 11.4685 64.1119 10.8975 63.3429 10.8975C62.5699 10.8975 62.1359 11.4685 62.1359 12.4445C62.1359 13.4285 62.5699 13.9945 63.3429 13.9945C64.1129 13.9945 64.5509 13.4245 64.5509 12.4445ZM66.3999 13.4245C66.3999 12.6145 67.0039 12.1465 68.0759 12.0805L69.2959 12.0105V11.6215C69.2959 11.1465 68.9809 10.8775 68.3739 10.8775C67.8769 10.8775 67.5339 11.0595 67.4349 11.3775H66.5749C66.6649 10.6045 67.3929 10.1075 68.4149 10.1075C69.5429 10.1075 70.1799 10.6705 70.1799 11.6215V14.6985H69.3249V14.0655H69.2549C69.1121 14.2926 68.9117 14.4777 68.674 14.6019C68.4362 14.7261 68.1698 14.785 67.9019 14.7725C67.7128 14.7922 67.5217 14.7721 67.3409 14.7134C67.1601 14.6547 66.9936 14.5587 66.8522 14.4317C66.7107 14.3047 66.5975 14.1494 66.5198 13.9759C66.442 13.8024 66.4006 13.6146 66.3999 13.4245ZM69.2949 13.0405V12.6635L68.1949 12.7335C67.5749 12.7755 67.2949 12.9865 67.2949 13.3835C67.2949 13.7885 67.6459 14.0235 68.1289 14.0235C68.2704 14.0378 68.4134 14.0235 68.5493 13.9814C68.6852 13.9394 68.8112 13.8705 68.92 13.7788C69.0287 13.6871 69.118 13.5745 69.1824 13.4477C69.2468 13.3209 69.285 13.1824 69.2949 13.0405ZM71.3479 12.4445C71.3479 11.0215 72.0799 10.1205 73.2179 10.1205C73.4992 10.1077 73.7783 10.1752 74.0226 10.3151C74.267 10.455 74.4665 10.6615 74.5979 10.9105H74.6649V8.4375H75.5529V14.6975H74.7019V13.9875H74.6319C74.4901 14.235 74.2833 14.439 74.0339 14.5774C73.7845 14.7157 73.5019 14.7832 73.2169 14.7725C72.0719 14.7725 71.3479 13.8715 71.3479 12.4445ZM72.2659 12.4445C72.2659 13.3995 72.7159 13.9745 73.4689 13.9745C74.2189 13.9745 74.6809 13.3915 74.6809 12.4485C74.6809 11.5105 74.2129 10.9185 73.4689 10.9185C72.7209 10.9185 72.2659 11.4985 72.2659 12.4445ZM79.2299 12.4445C79.2019 12.1488 79.236 11.8504 79.3299 11.5686C79.4239 11.2868 79.5757 11.0277 79.7756 10.808C79.9756 10.5883 80.2192 10.4127 80.4908 10.2926C80.7625 10.1725 81.0563 10.1104 81.3534 10.1104C81.6505 10.1104 81.9443 10.1725 82.2159 10.2926C82.4876 10.4127 82.7312 10.5883 82.9311 10.808C83.1311 11.0277 83.2829 11.2868 83.3768 11.5686C83.4708 11.8504 83.5049 12.1488 83.4769 12.4445C83.5064 12.7411 83.4735 13.0406 83.3802 13.3237C83.2869 13.6068 83.1354 13.8672 82.9354 14.0882C82.7353 14.3092 82.4912 14.4858 82.2187 14.6066C81.9462 14.7275 81.6515 14.7899 81.3534 14.7899C81.0553 14.7899 80.7606 14.7275 80.4881 14.6066C80.2156 14.4858 79.9715 14.3092 79.7714 14.0882C79.5714 13.8672 79.4198 13.6068 79.3266 13.3237C79.2333 13.0406 79.2004 12.7411 79.2299 12.4445ZM82.5629 12.4445C82.5629 11.4685 82.1249 10.8975 81.3549 10.8975C80.5829 10.8975 80.1479 11.4685 80.1479 12.4445C80.1479 13.4285 80.5829 13.9945 81.3549 13.9945C82.1249 13.9945 82.5629 13.4245 82.5629 12.4445ZM84.6699 10.1955H85.5249V10.9105H85.5909C85.7036 10.6536 85.8937 10.4382 86.1346 10.2945C86.3755 10.1507 86.6553 10.0857 86.9349 10.1085C87.154 10.092 87.3741 10.1251 87.5787 10.2052C87.7833 10.2853 87.9673 10.4104 88.117 10.5713C88.2667 10.7321 88.3783 10.9246 88.4436 11.1344C88.5088 11.3443 88.526 11.5661 88.4939 11.7835V14.6985H87.6049V12.0065C87.6049 11.2825 87.2909 10.9225 86.6329 10.9225C86.4842 10.9156 86.3357 10.941 86.1977 10.9968C86.0597 11.0526 85.9354 11.1377 85.8333 11.246C85.7312 11.3544 85.6537 11.4835 85.6062 11.6246C85.5586 11.7657 85.5422 11.9154 85.5579 12.0635V14.6985H84.6689L84.6699 10.1955ZM93.5149 9.0745V10.2155H94.4909V10.9645H93.5149V13.2795C93.5149 13.7515 93.7089 13.9585 94.1519 13.9585C94.2652 13.958 94.3784 13.951 94.4909 13.9375V14.6775C94.3311 14.7063 94.1692 14.7217 94.0069 14.7235C93.0189 14.7235 92.6259 14.3755 92.6259 13.5075V10.9645H91.9109V10.2155H92.6259V9.0745H93.5149ZM95.7049 8.4375H96.5849V10.9185H96.6549C96.7732 10.6592 96.9687 10.4426 97.2145 10.2984C97.4604 10.1542 97.7448 10.0892 98.0289 10.1125C98.2468 10.1007 98.4647 10.1371 98.6669 10.2192C98.8692 10.3013 99.0508 10.427 99.1989 10.5874C99.3469 10.7478 99.4577 10.9388 99.5234 11.147C99.5891 11.3551 99.6081 11.5752 99.5789 11.7915V14.6985H98.6899V12.0105C98.6899 11.2905 98.3549 10.9265 97.7269 10.9265C97.5741 10.9139 97.4204 10.9349 97.2766 10.988C97.1328 11.0411 97.0023 11.1249 96.8942 11.2337C96.7862 11.3425 96.7033 11.4736 96.6512 11.6178C96.5992 11.762 96.5793 11.9158 96.5929 12.0685V14.6985H95.7049V8.4375ZM104.761 13.4825C104.64 13.8939 104.379 14.2498 104.022 14.4879C103.666 14.7261 103.237 14.8314 102.811 14.7855C102.514 14.7935 102.219 14.7368 101.946 14.6193C101.674 14.5018 101.43 14.3264 101.232 14.1051C101.034 13.8839 100.886 13.6221 100.8 13.3381C100.713 13.0541 100.689 12.7546 100.73 12.4605C100.691 12.1657 100.715 11.8658 100.801 11.5812C100.888 11.2967 101.035 11.034 101.231 10.811C101.428 10.588 101.671 10.4098 101.942 10.2887C102.214 10.1675 102.508 10.106 102.806 10.1085C104.059 10.1085 104.815 10.9645 104.815 12.3785V12.6885H101.635V12.7385C101.621 12.9038 101.642 13.0702 101.696 13.227C101.75 13.3839 101.836 13.5276 101.949 13.6491C102.062 13.7706 102.2 13.8671 102.352 13.9324C102.505 13.9978 102.669 14.0305 102.835 14.0285C103.047 14.0537 103.262 14.0152 103.453 13.918C103.643 13.8208 103.801 13.6692 103.905 13.4825H104.761ZM101.635 12.0315H103.91C103.921 11.8803 103.901 11.7283 103.85 11.5855C103.799 11.4426 103.719 11.312 103.614 11.2021C103.51 11.0921 103.383 11.0053 103.243 10.9472C103.103 10.889 102.953 10.8609 102.801 10.8645C102.647 10.8626 102.495 10.8915 102.352 10.9495C102.21 11.0075 102.081 11.0934 101.972 11.2022C101.863 11.3109 101.777 11.4403 101.72 11.5828C101.662 11.7252 101.633 11.8778 101.635 12.0315Z" fill="white"/>
</g>
<defs>
<clipPath id="clip0_7044_16136">
<rect width="119.664" height="40" fill="white"/>
</clipPath>
</defs>
</svg>
