<svg width="136" height="40" viewBox="0 0 136 40" fill="none" xmlns="http://www.w3.org/2000/svg">
<g clip-path="url(#clip0_7044_16123)">
<path d="M130.664 0H5.66406C2.90264 0 0.664062 2.23858 0.664062 5V35C0.664062 37.7614 2.90264 40 5.66406 40H130.664C133.425 40 135.664 37.7614 135.664 35V5C135.664 2.23858 133.425 0 130.664 0Z" fill="black"/>
<path d="M130.664 0.8C131.778 0.8 132.846 1.2425 133.634 2.03015C134.422 2.8178 134.864 3.88609 134.864 5V35C134.864 36.1139 134.422 37.1822 133.634 37.9698C132.846 38.7575 131.778 39.2 130.664 39.2H5.66406C4.55015 39.2 3.48187 38.7575 2.69421 37.9698C1.90656 37.1822 1.46406 36.1139 1.46406 35V5C1.46406 3.88609 1.90656 2.8178 2.69421 2.03015C3.48187 1.2425 4.55015 0.8 5.66406 0.8H130.664ZM130.664 0H5.66406C4.33798 0 3.06621 0.526784 2.12853 1.46447C1.19085 2.40215 0.664063 3.67392 0.664062 5L0.664063 35C0.664063 36.3261 1.19085 37.5979 2.12853 38.5355C3.06621 39.4732 4.33798 40 5.66406 40H130.664C131.99 40 133.262 39.4732 134.2 38.5355C135.137 37.5979 135.664 36.3261 135.664 35V5C135.664 3.67392 135.137 2.40215 134.2 1.46447C133.262 0.526784 131.99 0 130.664 0Z" fill="#A6A6A6"/>
<path d="M48.0839 10.2392C48.1009 10.606 48.0432 10.9725 47.9143 11.3163C47.7854 11.6601 47.5879 11.9741 47.3339 12.2392C47.0503 12.5338 46.7078 12.7654 46.3288 12.9187C45.9497 13.0721 45.5426 13.1438 45.1339 13.1292C44.7222 13.1333 44.3139 13.055 43.9329 12.899C43.5519 12.743 43.2059 12.5124 42.9152 12.2209C42.6246 11.9293 42.3951 11.5825 42.2403 11.201C42.0856 10.8195 42.0086 10.4109 42.0139 9.99925C42.0086 9.58757 42.0856 9.17898 42.2403 8.79747C42.3951 8.41596 42.6246 8.06923 42.9152 7.77764C43.2059 7.48605 43.5519 7.25549 43.9329 7.09949C44.3139 6.9435 44.7222 6.86522 45.1339 6.86925C45.5567 6.86784 45.9753 6.95292 46.3639 7.11925C46.7258 7.2652 47.0479 7.4948 47.3039 7.78925L46.7739 8.31925C46.5743 8.08184 46.3223 7.89411 46.0376 7.77089C45.753 7.64766 45.4436 7.59233 45.1339 7.60925C44.8224 7.60776 44.5138 7.66902 44.2265 7.78937C43.9392 7.90971 43.6791 8.08668 43.4617 8.30972C43.2442 8.53276 43.0739 8.7973 42.9609 9.08757C42.8479 9.37784 42.7945 9.6879 42.8039 9.99925C42.7974 10.4654 42.929 10.923 43.1823 11.3144C43.4355 11.7058 43.799 12.0134 44.2269 12.1985C44.6547 12.3836 45.1278 12.4378 45.5865 12.3542C46.0451 12.2707 46.4688 12.0532 46.8039 11.7292C47.1116 11.3958 47.2891 10.9627 47.3039 10.5092H45.1339V9.78925H48.0439C48.0706 9.93776 48.084 10.0884 48.0839 10.2392ZM52.6639 7.73925H49.9639V9.63925H52.4239V10.3592H49.9639V12.2592H52.6639V12.9992H49.1639V6.99925H52.6639V7.73925ZM55.9439 12.9992H55.1739V7.73925H53.4939V6.99925H57.6639V7.73925H55.9439V12.9992ZM60.6039 12.9992V6.99925H61.3739V12.9992H60.6039ZM64.7939 12.9992H64.0239V7.73925H62.3439V6.99925H66.4639V7.73925H64.7939V12.9992ZM74.2739 12.2192C73.6893 12.8006 72.8984 13.1269 72.0739 13.1269C71.2495 13.1269 70.4585 12.8006 69.8739 12.2192C69.5864 11.9268 69.3604 11.5796 69.2092 11.1983C69.0581 10.817 68.9849 10.4093 68.9939 9.99925C68.9849 9.58919 69.0581 9.18147 69.2092 8.80018C69.3604 8.41888 69.5864 8.07174 69.8739 7.77925C70.1621 7.48899 70.5048 7.25862 70.8824 7.10142C71.26 6.94422 71.6649 6.86328 72.0739 6.86328C72.4829 6.86328 72.8879 6.94422 73.2655 7.10142C73.643 7.25862 73.9858 7.48899 74.2739 7.77925C74.5615 8.07174 74.7875 8.41888 74.9386 8.80018C75.0898 9.18147 75.163 9.58919 75.1539 9.99925C75.163 10.4093 75.0898 10.817 74.9386 11.1983C74.7875 11.5796 74.5615 11.9268 74.2739 12.2192ZM70.4439 11.7192C70.8769 12.1504 71.463 12.3924 72.0739 12.3924C72.6849 12.3924 73.271 12.1504 73.7039 11.7192C73.9259 11.4926 74.0997 11.2234 74.2149 10.9278C74.33 10.6322 74.3841 10.3163 74.3739 9.99925C74.3789 9.67932 74.3185 9.36174 74.1964 9.06598C74.0743 8.77022 73.8931 8.50251 73.6639 8.27925C73.231 7.84813 72.6449 7.60607 72.0339 7.60607C71.423 7.60607 70.8369 7.84813 70.4039 8.27925C70.1891 8.50917 70.0227 8.77988 69.9145 9.07534C69.8062 9.3708 69.7584 9.68498 69.7739 9.99925C69.7637 10.3163 69.8178 10.6322 69.933 10.9278C70.0481 11.2234 70.2219 11.4926 70.4439 11.7192ZM76.2439 12.9992V6.99925H77.1839L80.1039 11.6692V6.99925H80.8739V12.9992H80.0739L77.0139 8.10925V12.9992H76.2439Z" fill="white" stroke="white" stroke-width="0.2" stroke-miterlimit="10"/>
<path d="M68.8042 21.7511C67.9645 21.755 67.1447 22.0077 66.4485 22.477C65.7522 22.9464 65.2106 23.6116 64.892 24.3885C64.5734 25.1654 64.492 26.0193 64.6583 26.8424C64.8245 27.6655 65.2309 28.4209 65.826 29.0133C66.4212 29.6057 67.1785 30.0085 68.0024 30.1708C68.8262 30.3332 69.6797 30.2479 70.4552 29.9256C71.2306 29.6034 71.8932 29.0586 72.3593 28.3602C72.8254 27.6617 73.0742 26.8408 73.0742 26.0011C73.0823 25.439 72.9773 24.8811 72.7653 24.3604C72.5534 23.8398 72.2388 23.3671 71.8404 22.9706C71.442 22.574 70.9679 22.2617 70.4463 22.0522C69.9246 21.8427 69.3662 21.7403 68.8042 21.7511ZM68.8042 28.5811C68.2877 28.6172 67.7724 28.4971 67.3251 28.2365C66.8779 27.9758 66.5193 27.5866 66.2962 27.1195C66.073 26.6524 65.9956 26.129 66.0738 25.6172C66.1521 25.1055 66.3825 24.6292 66.7351 24.2501C67.0877 23.8711 67.5462 23.6069 68.0509 23.4919C68.5557 23.3768 69.0833 23.4163 69.5653 23.6052C70.0474 23.794 70.4614 24.1235 70.7537 24.5508C71.0459 24.9781 71.2029 25.4834 71.2042 26.0011C71.2203 26.3291 71.1705 26.657 71.0579 26.9655C70.9452 27.274 70.772 27.5568 70.5483 27.7973C70.3246 28.0377 70.0551 28.231 69.7555 28.3656C69.456 28.5002 69.1325 28.5735 68.8042 28.5811ZM59.4942 21.7511C58.654 21.7531 57.8333 22.004 57.1357 22.4722C56.4381 22.9404 55.8949 23.6048 55.5748 24.3816C55.2547 25.1584 55.1719 26.0126 55.337 26.8363C55.5022 27.6601 55.9077 28.4164 56.5025 29.0098C57.0973 29.6032 57.8546 30.007 58.6787 30.1701C59.5028 30.3333 60.3569 30.2486 61.1329 29.9266C61.9089 29.6047 62.572 29.0599 63.0386 28.3612C63.5052 27.6625 63.7542 26.8412 63.7542 26.0011C63.7623 25.439 63.6573 24.8811 63.4453 24.3604C63.2334 23.8398 62.9188 23.3671 62.5204 22.9706C62.122 22.574 61.6479 22.2617 61.1262 22.0522C60.6046 21.8427 60.0462 21.7403 59.4842 21.7511H59.4942ZM59.4942 28.5811C58.9775 28.6192 58.4613 28.501 58.0128 28.2416C57.5643 27.9823 57.2042 27.594 56.9795 27.1272C56.7548 26.6604 56.6758 26.1367 56.7529 25.6244C56.8299 25.1121 57.0594 24.6349 57.4115 24.2548C57.7635 23.8747 58.2219 23.6095 58.7268 23.4935C59.2318 23.3776 59.7599 23.4164 60.2425 23.6048C60.7251 23.7932 61.1398 24.1226 61.4326 24.55C61.7254 24.9774 61.8828 25.483 61.8842 26.0011C61.9003 26.3291 61.8505 26.657 61.7379 26.9655C61.6253 27.274 61.452 27.5568 61.2283 27.7973C61.0046 28.0377 60.7351 28.231 60.4355 28.3656C60.136 28.5002 59.8125 28.5735 59.4842 28.5811H59.4942ZM48.4042 23.0611V24.8611H52.7242C52.6564 25.7089 52.304 26.5089 51.7242 27.1311C51.292 27.5713 50.7724 27.9162 50.1989 28.1435C49.6254 28.3709 49.0106 28.4757 48.3942 28.4511C47.1211 28.4511 45.9002 27.9454 45 27.0452C44.0999 26.145 43.5942 24.9241 43.5942 23.6511C43.5942 22.3781 44.0999 21.1572 45 20.257C45.9002 19.3568 47.1211 18.8511 48.3942 18.8511C49.612 18.8312 50.7879 19.2951 51.6642 20.1411L52.9342 18.8711C52.3426 18.2721 51.6369 17.798 50.8588 17.4768C50.0806 17.1555 49.246 16.9938 48.4042 17.0011C47.5152 16.9665 46.6283 17.1117 45.7968 17.4281C44.9652 17.7444 44.2061 18.2254 43.5649 18.8421C42.9237 19.4588 42.4136 20.1987 42.0652 21.0173C41.7167 21.8359 41.5371 22.7164 41.5371 23.6061C41.5371 24.4958 41.7167 25.3763 42.0652 26.1949C42.4136 27.0135 42.9237 27.7533 43.5649 28.3701C44.2061 28.9868 44.9652 29.4678 45.7968 29.7841C46.6283 30.1005 47.5152 30.2457 48.4042 30.2111C49.2601 30.2498 50.1144 30.1047 50.9096 29.7856C51.7048 29.4665 52.4224 28.9807 53.0142 28.3611C54.0618 27.21 54.6212 25.6969 54.5742 24.1411C54.5774 23.7621 54.5439 23.3836 54.4742 23.0111L48.4042 23.0611ZM93.7142 24.4611C93.4534 23.6938 92.9657 23.0239 92.3157 22.5399C91.6657 22.056 90.884 21.7809 90.0742 21.7511C89.5272 21.75 88.9857 21.8612 88.4834 22.0776C87.981 22.2941 87.5284 22.6113 87.1535 23.0096C86.7786 23.408 86.4894 23.8789 86.3038 24.3935C86.1181 24.908 86.04 25.4552 86.0742 26.0011C86.062 26.56 86.1626 27.1156 86.37 27.6348C86.5774 28.1539 86.8873 28.626 87.2812 29.0227C87.6751 29.4194 88.1449 29.7326 88.6626 29.9437C89.1803 30.1547 89.7352 30.2593 90.2942 30.2511C90.9937 30.2549 91.6832 30.0851 92.301 29.757C92.9188 29.4289 93.4456 28.9527 93.8342 28.3711L92.3842 27.3711C92.1677 27.7319 91.8614 28.0303 91.495 28.2371C91.1287 28.444 90.7149 28.5522 90.2942 28.5511C89.861 28.5676 89.4329 28.4534 89.0655 28.2233C88.6981 27.9933 88.4084 27.658 88.2342 27.2611L93.9242 24.9111L93.7142 24.4611ZM87.9142 25.8811C87.8939 25.5718 87.9355 25.2615 88.0367 24.9685C88.1378 24.6755 88.2964 24.4056 88.5031 24.1747C88.7099 23.9437 88.9606 23.7563 89.2407 23.6235C89.5208 23.4907 89.8245 23.4151 90.1342 23.4011C90.4567 23.3798 90.7784 23.4538 91.0593 23.6138C91.3402 23.7738 91.5679 24.0128 91.7142 24.3011L87.9142 25.8811ZM83.2942 30.0011H85.1642V17.5011H83.2942V30.0011ZM80.2342 22.7011H80.1642C79.8823 22.386 79.5371 22.134 79.151 21.9617C78.765 21.7893 78.3469 21.7005 77.9242 21.7011C76.8313 21.7541 75.8008 22.2255 75.0461 23.0177C74.2915 23.8098 73.8705 24.862 73.8705 25.9561C73.8705 27.0502 74.2915 28.1024 75.0461 28.8945C75.8008 29.6867 76.8313 30.1581 77.9242 30.2111C78.3479 30.2182 78.7681 30.1324 79.1551 29.9596C79.5421 29.7868 79.8865 29.5313 80.1642 29.2111H80.2242V29.8211C80.2242 31.4511 79.3542 32.3211 77.9542 32.3211C77.4879 32.3102 77.0354 32.1608 76.6543 31.8919C76.2732 31.623 75.9808 31.2467 75.8142 30.8111L74.1842 31.4911C74.491 32.2375 75.0138 32.8751 75.6855 33.3223C76.3572 33.7696 77.1472 34.0059 77.9542 34.0011C80.1442 34.0011 81.9542 32.7111 81.9542 29.5711V22.0011H80.2342V22.7011ZM78.0942 28.5811C77.4491 28.5242 76.8488 28.2278 76.4114 27.7503C75.9741 27.2727 75.7315 26.6486 75.7315 26.0011C75.7315 25.3535 75.9741 24.7295 76.4114 24.2519C76.8488 23.7744 77.4491 23.4779 78.0942 23.4211C78.414 23.4375 78.7273 23.5178 79.0156 23.6571C79.3039 23.7965 79.5615 23.9922 79.773 24.2326C79.9846 24.473 80.1458 24.7534 80.2474 25.0571C80.3489 25.3608 80.3886 25.6818 80.3642 26.0011C80.3914 26.3218 80.3534 26.6447 80.2523 26.9502C80.1513 27.2558 79.9893 27.5377 79.7761 27.7789C79.563 28.0201 79.3032 28.2155 79.0124 28.3534C78.7215 28.4913 78.4058 28.5687 78.0842 28.5811H78.0942ZM102.474 17.5011H97.9942V30.0011H99.8642V25.2611H102.474C103.007 25.2994 103.542 25.2275 104.046 25.0498C104.55 24.8722 105.012 24.5926 105.403 24.2286C105.794 23.8645 106.106 23.4238 106.32 22.9339C106.533 22.444 106.643 21.9154 106.643 21.3811C106.643 20.8468 106.533 20.3182 106.32 19.8283C106.106 19.3384 105.794 18.8976 105.403 18.5336C105.012 18.1696 104.55 17.89 104.046 17.7124C103.542 17.5347 103.007 17.4628 102.474 17.5011ZM102.474 23.5011H99.8642V19.2411H102.514C103.083 19.2411 103.629 19.4671 104.031 19.8693C104.433 20.2716 104.659 20.8172 104.659 21.3861C104.659 21.955 104.433 22.5006 104.031 22.9028C103.629 23.3051 103.083 23.5311 102.514 23.5311L102.474 23.5011ZM114.004 21.7011C113.323 21.6604 112.646 21.8195 112.054 22.1588C111.462 22.4981 110.983 23.0029 110.674 23.6111L112.334 24.3011C112.498 23.9994 112.746 23.7519 113.047 23.5885C113.349 23.4252 113.692 23.3531 114.034 23.3811C114.272 23.3534 114.512 23.3732 114.742 23.4394C114.971 23.5056 115.186 23.6169 115.372 23.7668C115.558 23.9167 115.712 24.1021 115.826 24.3123C115.94 24.5225 116.011 24.7533 116.034 24.9911V25.1211C115.434 24.8031 114.764 24.6382 114.084 24.6411C112.294 24.6411 110.484 25.6411 110.484 27.4511C110.502 27.837 110.597 28.2155 110.763 28.5641C110.93 28.9128 111.164 29.2245 111.453 29.4809C111.742 29.7373 112.08 29.9331 112.446 30.0568C112.812 30.1805 113.199 30.2296 113.584 30.2011C114.055 30.2349 114.526 30.1413 114.949 29.9302C115.371 29.719 115.729 29.3981 115.984 29.0011H116.044V30.0011H117.844V25.1911C117.844 23.0011 116.184 21.7311 114.054 21.7311L114.004 21.7011ZM113.774 28.5511C113.164 28.5511 112.314 28.2411 112.314 27.4911C112.314 26.4911 113.374 26.1611 114.314 26.1611C114.908 26.1464 115.495 26.2915 116.014 26.5811C115.952 27.1225 115.696 27.6231 115.293 27.9906C114.891 28.3581 114.369 28.5678 113.824 28.5811L113.774 28.5511ZM124.404 22.0011L122.264 27.4211H122.204L119.984 22.0011H117.984L121.314 29.5811L119.414 33.7911H121.364L126.484 22.0011H124.404ZM107.594 30.0011H109.464V17.5011H107.594V30.0011Z" fill="white"/>
<path d="M11.1042 7.53875C10.7855 7.93281 10.6282 8.43319 10.6642 8.93875V31.0588C10.6338 31.567 10.7983 32.0676 11.1242 32.4587L11.1942 32.5287L23.5642 20.1488V19.8588L11.1742 7.46875L11.1042 7.53875Z" fill="url(#paint0_linear_7044_16123)"/>
<path d="M27.664 24.2788L23.564 20.1487V19.8588L27.664 15.7188L27.754 15.7688L32.664 18.5587C34.064 19.3487 34.064 20.6488 32.664 21.4488L27.774 24.2287L27.664 24.2788Z" fill="url(#paint1_linear_7044_16123)"/>
<path d="M27.784 24.23L23.564 20L11.104 32.46C11.3894 32.7109 11.7534 32.8541 12.1332 32.8651C12.513 32.876 12.8847 32.754 13.184 32.52L27.794 24.22" fill="url(#paint2_linear_7044_16123)"/>
<path d="M27.7842 15.7786L13.1742 7.47858C12.8749 7.2446 12.5032 7.12254 12.1234 7.13349C11.7436 7.14445 11.3796 7.28773 11.0942 7.53858L23.5642 19.9986L27.7842 15.7786Z" fill="url(#paint3_linear_7044_16123)"/>
<path opacity="0.2" d="M27.664 24.1289L13.174 32.3789C12.8853 32.5948 12.5345 32.7114 12.174 32.7114C11.8135 32.7114 11.4627 32.5948 11.174 32.3789L11.104 32.4489L11.174 32.5189C11.4621 32.7363 11.8131 32.8539 12.174 32.8539C12.5349 32.8539 12.8859 32.7363 13.174 32.5189L27.784 24.2189L27.664 24.1289Z" fill="black"/>
<path opacity="0.12" d="M11.1042 32.32C10.7783 31.9289 10.6138 31.4282 10.6442 30.92V31.07C10.6138 31.5782 10.7783 32.0789 11.1042 32.47L11.1742 32.4L11.1042 32.32ZM32.6642 21.3L27.6642 24.13L27.7542 24.22L32.6642 21.44C32.9428 21.3091 33.182 21.1071 33.3575 20.8543C33.5331 20.6014 33.6389 20.3068 33.6642 20C33.608 20.2787 33.4886 20.5408 33.3152 20.7662C33.1419 20.9915 32.9192 21.1742 32.6642 21.3Z" fill="black"/>
<path opacity="0.25" d="M13.1741 7.62095L32.6641 18.701C32.919 18.8268 33.1417 19.0094 33.3151 19.2348C33.4884 19.4601 33.6078 19.7222 33.6641 20.001C33.6387 19.6942 33.533 19.3995 33.3574 19.1467C33.1818 18.8939 32.9427 18.6918 32.6641 18.561L13.1741 7.48095C11.7841 6.68095 10.6641 7.34095 10.6641 8.94095V9.09095C10.6641 7.49095 11.7841 6.83095 13.1741 7.62095Z" fill="white"/>
</g>
<defs>
<linearGradient id="paint0_linear_7044_16123" x1="22.4642" y1="8.70875" x2="5.68424" y2="25.4887" gradientUnits="userSpaceOnUse">
<stop stop-color="#00A0FF"/>
<stop offset="0.01" stop-color="#00A1FF"/>
<stop offset="0.26" stop-color="#00BEFF"/>
<stop offset="0.51" stop-color="#00D2FF"/>
<stop offset="0.76" stop-color="#00DFFF"/>
<stop offset="1" stop-color="#00E3FF"/>
</linearGradient>
<linearGradient id="paint1_linear_7044_16123" x1="34.494" y1="19.9987" x2="10.304" y2="19.9987" gradientUnits="userSpaceOnUse">
<stop stop-color="#FFE000"/>
<stop offset="0.41" stop-color="#FFBD00"/>
<stop offset="0.78" stop-color="#FFA500"/>
<stop offset="1" stop-color="#FF9C00"/>
</linearGradient>
<linearGradient id="paint2_linear_7044_16123" x1="25.494" y1="22.3" x2="2.734" y2="45.05" gradientUnits="userSpaceOnUse">
<stop stop-color="#FF3A44"/>
<stop offset="1" stop-color="#C31162"/>
</linearGradient>
<linearGradient id="paint3_linear_7044_16123" x1="7.96424" y1="0.178584" x2="18.1242" y2="10.3386" gradientUnits="userSpaceOnUse">
<stop stop-color="#32A071"/>
<stop offset="0.07" stop-color="#2DA771"/>
<stop offset="0.48" stop-color="#15CF74"/>
<stop offset="0.8" stop-color="#06E775"/>
<stop offset="1" stop-color="#00F076"/>
</linearGradient>
<clipPath id="clip0_7044_16123">
<rect width="135" height="40" fill="white" transform="translate(0.664062)"/>
</clipPath>
</defs>
</svg>
