<svg width="105" height="40" viewBox="0 0 105 40" fill="none" xmlns="http://www.w3.org/2000/svg">
<g clip-path="url(#clip0_7121_16242)">
<path d="M100.812 0H4.51591C2.3886 0 0.664062 2.23858 0.664062 5V35C0.664062 37.7614 2.3886 40 4.51591 40H100.812C102.94 40 104.664 37.7614 104.664 35V5C104.664 2.23858 102.94 0 100.812 0Z" fill="black"/>
<path d="M100.812 0.8C101.67 0.8 102.493 1.2425 103.1 2.03015C103.707 2.8178 104.048 3.88609 104.048 5V35C104.048 36.1139 103.707 37.1822 103.1 37.9698C102.493 38.7575 101.67 39.2 100.812 39.2H4.51591C3.65779 39.2 2.83482 38.7575 2.22803 37.9698C1.62125 37.1822 1.28036 36.1139 1.28036 35V5C1.28036 3.88609 1.62125 2.8178 2.22803 2.03015C2.83482 1.2425 3.65779 0.8 4.51591 0.8H100.812ZM100.812 0H4.51591C3.49434 0 2.51461 0.526784 1.79224 1.46447C1.06988 2.40215 0.664063 3.67392 0.664062 5L0.664063 35C0.664063 36.3261 1.06988 37.5979 1.79224 38.5355C2.51461 39.4732 3.49434 40 4.51591 40H100.812C101.834 40 102.814 39.4732 103.536 38.5355C104.258 37.5979 104.664 36.3261 104.664 35V5C104.664 3.67392 104.258 2.40215 103.536 1.46447C102.814 0.526784 101.834 0 100.812 0Z" fill="#A6A6A6"/>
<path d="M44.7827 12.1807L46.4658 6.95117H47.6831L45.3892 13.3496H44.5674L44.7827 12.1807ZM43.2271 6.95117L44.897 12.1807L45.1255 13.3496H44.2993L42.0142 6.95117H43.2271Z" fill="white"/>
<path d="M49.5771 6.95117V13.3496H48.4741V6.95117H49.5771Z" fill="white"/>
<path d="M54.3145 11.7017C54.3145 11.5698 54.2939 11.4526 54.2529 11.3501C54.2148 11.2476 54.146 11.1538 54.0464 11.0688C53.9468 10.9839 53.8062 10.9019 53.6245 10.8228C53.4458 10.7407 53.2173 10.6572 52.939 10.5723C52.6343 10.4785 52.353 10.3745 52.0952 10.2603C51.8403 10.1431 51.6177 10.0083 51.4272 9.85596C51.2368 9.70068 51.0889 9.52344 50.9834 9.32422C50.8779 9.12207 50.8252 8.88916 50.8252 8.62549C50.8252 8.36475 50.8794 8.12744 50.9878 7.91357C51.0991 7.69971 51.2559 7.51514 51.458 7.35986C51.6631 7.20166 51.9048 7.08008 52.1831 6.99512C52.4614 6.90723 52.769 6.86328 53.106 6.86328C53.5806 6.86328 53.9893 6.95117 54.332 7.12695C54.6777 7.30273 54.9429 7.53857 55.1274 7.83447C55.3149 8.13037 55.4087 8.45703 55.4087 8.81445H54.3145C54.3145 8.60352 54.269 8.41748 54.1782 8.25635C54.0903 8.09229 53.9556 7.96338 53.7739 7.86963C53.5952 7.77588 53.3682 7.729 53.0928 7.729C52.832 7.729 52.6152 7.76855 52.4424 7.84766C52.2695 7.92676 52.1406 8.03369 52.0557 8.16846C51.9707 8.30322 51.9282 8.45557 51.9282 8.62549C51.9282 8.74561 51.9561 8.85547 52.0117 8.95508C52.0674 9.05176 52.1523 9.14258 52.2666 9.22754C52.3809 9.30957 52.5244 9.38721 52.6973 9.46045C52.8701 9.53369 53.0737 9.604 53.3081 9.67139C53.6626 9.77686 53.9717 9.89404 54.2354 10.0229C54.499 10.1489 54.7188 10.2925 54.8945 10.4536C55.0703 10.6147 55.2021 10.7979 55.29 11.0029C55.3779 11.2051 55.4219 11.4351 55.4219 11.6929C55.4219 11.9624 55.3677 12.2056 55.2593 12.4224C55.1509 12.6362 54.9956 12.8193 54.7935 12.9717C54.5942 13.1211 54.354 13.2368 54.0728 13.3188C53.7944 13.3979 53.4839 13.4375 53.1411 13.4375C52.8335 13.4375 52.5303 13.3965 52.2314 13.3145C51.9355 13.2324 51.666 13.1079 51.4229 12.9409C51.1797 12.771 50.9863 12.5601 50.8428 12.3081C50.6992 12.0532 50.6274 11.7559 50.6274 11.416H51.7305C51.7305 11.624 51.7656 11.8013 51.8359 11.9478C51.9092 12.0942 52.0103 12.2144 52.1392 12.3081C52.2681 12.3989 52.4175 12.4663 52.5874 12.5103C52.7603 12.5542 52.9448 12.5762 53.1411 12.5762C53.3989 12.5762 53.6143 12.5396 53.7871 12.4663C53.9629 12.3931 54.0947 12.2905 54.1826 12.1587C54.2705 12.0269 54.3145 11.8745 54.3145 11.7017Z" fill="white"/>
<path d="M57.5752 6.95117V13.3496H56.4722V6.95117H57.5752Z" fill="white"/>
<path d="M61.4468 6.95117V13.3496H60.3525V6.95117H61.4468ZM63.4551 6.95117V7.83008H58.3618V6.95117H63.4551Z" fill="white"/>
<path d="M27.1483 22.5187C27.2403 21.7597 27.3093 21.0007 27.3093 20.2188C27.3093 19.4367 27.2403 18.6777 27.1483 17.9187H31.0353C31.2193 18.6547 31.3343 19.4253 31.3343 20.2188C31.3343 21.0122 31.2193 21.7828 31.0353 22.5187M25.1128 28.9127C25.8028 27.6362 26.3318 26.2563 26.6998 24.8188H30.0923C28.9781 26.7373 27.2105 28.1905 25.1128 28.9127ZM24.8253 22.5187H19.4433C19.3283 21.7597 19.2593 21.0007 19.2593 20.2188C19.2593 19.4367 19.3283 18.6663 19.4433 17.9187H24.8253C24.9288 18.6663 25.0093 19.4367 25.0093 20.2188C25.0093 21.0007 24.9288 21.7597 24.8253 22.5187ZM22.1343 29.3727C21.1798 27.9927 20.4093 26.4632 19.9378 24.8188H24.3308C23.8593 26.4632 23.0888 27.9927 22.1343 29.3727ZM17.5343 15.6187H14.1763C15.2787 13.6948 17.0451 12.2392 19.1443 11.5247C18.4543 12.8012 17.9368 14.1813 17.5343 15.6187ZM14.1763 24.8188H17.5343C17.9368 26.2563 18.4543 27.6362 19.1443 28.9127C17.0493 28.1909 15.2852 26.7372 14.1763 24.8188ZM13.2333 22.5187C13.0493 21.7828 12.9343 21.0122 12.9343 20.2188C12.9343 19.4253 13.0493 18.6547 13.2333 17.9187H17.1203C17.0283 18.6777 16.9593 19.4367 16.9593 20.2188C16.9593 21.0007 17.0283 21.7597 17.1203 22.5187M22.1343 11.0533C23.0888 12.4333 23.8593 13.9742 24.3308 15.6187H19.9378C20.4093 13.9742 21.1798 12.4333 22.1343 11.0533ZM30.0923 15.6187H26.6998C26.3393 14.1946 25.8064 12.8198 25.1128 11.5247C27.2288 12.2492 28.9883 13.7097 30.0923 15.6187ZM22.1343 8.71875C15.7748 8.71875 10.6343 13.8937 10.6343 20.2188C10.6343 23.2687 11.8459 26.1938 14.0025 28.3505C15.0704 29.4184 16.3382 30.2654 17.7334 30.8434C19.1287 31.4213 20.6241 31.7188 22.1343 31.7188C25.1843 31.7188 28.1093 30.5071 30.266 28.3505C32.4227 26.1938 33.6343 23.2687 33.6343 20.2188C33.6343 18.7085 33.3368 17.2131 32.7589 15.8179C32.181 14.4226 31.3339 13.1549 30.266 12.087C29.1981 11.0191 27.9304 10.1721 26.5351 9.59414C25.1399 9.01621 23.6445 8.71875 22.1343 8.71875Z" fill="white"/>
<path d="M48.9211 30C47.9967 30 47.1358 29.832 46.3385 29.496C45.5527 29.16 44.8709 28.7023 44.2931 28.123C43.7154 27.5321 43.2589 26.8427 42.9238 26.0548C42.6003 25.2553 42.4385 24.4037 42.4385 23.5C42.4385 22.5963 42.6003 21.7504 42.9238 20.9626C43.2589 20.1631 43.7154 19.4737 44.2931 18.8944C44.8709 18.3035 45.5527 17.84 46.3385 17.504C47.1358 17.168 47.9967 17 48.9211 17C49.8456 17 50.7007 17.168 51.4865 17.504C52.2838 17.84 52.9714 18.3035 53.5491 18.8944C54.1269 19.4737 54.5776 20.1631 54.9011 20.9626C55.2363 21.7504 55.4038 22.5963 55.4038 23.5C55.4038 24.4037 55.2363 25.2553 54.9011 26.0548C54.5776 26.8427 54.1269 27.5321 53.5491 28.123C52.9714 28.7023 52.2838 29.16 51.4865 29.496C50.7007 29.832 49.8456 30 48.9211 30ZM48.9211 27.7754C49.4989 27.7754 50.0363 27.6711 50.5331 27.4626C51.0416 27.254 51.4807 26.9643 51.8505 26.5936C52.2318 26.2228 52.5265 25.7767 52.7345 25.2553C52.954 24.7224 53.0638 24.1373 53.0638 23.5C53.0638 22.8627 52.954 22.2834 52.7345 21.762C52.5265 21.2291 52.2318 20.7772 51.8505 20.4064C51.4807 20.0357 51.0416 19.746 50.5331 19.5374C50.0363 19.3289 49.4989 19.2246 48.9211 19.2246C48.3434 19.2246 47.8003 19.3289 47.2918 19.5374C46.7949 19.746 46.3558 20.0357 45.9745 20.4064C45.6047 20.7772 45.31 21.2291 45.0905 21.762C44.8825 22.2834 44.7785 22.8627 44.7785 23.5C44.7785 24.1373 44.8825 24.7224 45.0905 25.2553C45.31 25.7767 45.6047 26.2228 45.9745 26.5936C46.3558 26.9643 46.7949 27.254 47.2918 27.4626C47.8003 27.6711 48.3434 27.7754 48.9211 27.7754Z" fill="white"/>
<path d="M59.0678 22.3182H59.2064C59.4722 21.8895 59.8304 21.5535 60.2811 21.3102C60.7318 21.0553 61.246 20.9278 61.8238 20.9278C62.3553 20.9278 62.8233 21.0147 63.2278 21.1885C63.6322 21.3623 63.9616 21.6114 64.2158 21.9358C64.4816 22.2487 64.678 22.631 64.8051 23.0829C64.9438 23.5232 65.0131 24.0156 65.0131 24.5602V29.7219H62.7424V24.8382C62.7424 24.2242 62.6038 23.7723 62.3264 23.4826C62.0607 23.1814 61.6678 23.0307 61.1478 23.0307C60.8358 23.0307 60.5584 23.1003 60.3158 23.2393C60.0847 23.3668 59.8824 23.5463 59.7091 23.7781C59.5473 23.9982 59.4202 24.2647 59.3278 24.5775C59.2469 24.8788 59.2064 25.2032 59.2064 25.5508V29.7219H56.9358V21.2059H59.0678V22.3182Z" fill="white"/>
<path d="M66.8889 29.7219V17.2781H69.1596V29.7219H66.8889Z" fill="white"/>
<path d="M72.3691 19.9719C72.1726 19.9719 71.982 19.9372 71.7971 19.8676C71.6237 19.7865 71.4677 19.6823 71.3291 19.5548C71.202 19.4158 71.098 19.2594 71.0171 19.0856C70.9477 18.9118 70.9131 18.7206 70.9131 18.512C70.9131 18.3035 70.9477 18.1123 71.0171 17.9385C71.098 17.7647 71.202 17.6141 71.3291 17.4866C71.4677 17.3476 71.6237 17.2433 71.7971 17.1738C71.982 17.0927 72.1726 17.0521 72.3691 17.0521C72.7735 17.0521 73.1202 17.197 73.4091 17.4866C73.698 17.7647 73.8424 18.1065 73.8424 18.512C73.8424 18.9176 73.698 19.2652 73.4091 19.5548C73.1202 19.8329 72.7735 19.9719 72.3691 19.9719ZM71.2424 29.7219V21.2059H73.5131V29.7219H71.2424Z" fill="white"/>
<path d="M77.7214 22.3182H77.8601C78.1259 21.8895 78.4841 21.5535 78.9348 21.3102C79.3854 21.0553 79.8996 20.9278 80.4774 20.9278C81.009 20.9278 81.477 21.0147 81.8814 21.1885C82.2859 21.3623 82.6152 21.6114 82.8694 21.9358C83.1352 22.2487 83.3316 22.631 83.4588 23.0829C83.5974 23.5232 83.6668 24.0156 83.6668 24.5602V29.7219H81.3961V24.8382C81.3961 24.2242 81.2574 23.7723 80.9801 23.4826C80.7143 23.1814 80.3214 23.0307 79.8014 23.0307C79.4894 23.0307 79.2121 23.1003 78.9694 23.2393C78.7383 23.3668 78.5361 23.5463 78.3628 23.7781C78.201 23.9982 78.0739 24.2647 77.9814 24.5775C77.9005 24.8788 77.8601 25.2032 77.8601 25.5508V29.7219H75.5894V21.2059H77.7214V22.3182Z" fill="white"/>
<path d="M93.5852 27.6711C93.1923 28.3663 92.6608 28.9283 91.9905 29.357C91.3319 29.7857 90.523 30 89.5639 30C88.9168 30 88.3159 29.8899 87.7612 29.6698C87.2181 29.4381 86.7443 29.1194 86.3399 28.7139C85.9354 28.3084 85.6177 27.8333 85.3865 27.2888C85.167 26.7326 85.0572 26.1243 85.0572 25.4639C85.0572 24.8498 85.167 24.2705 85.3865 23.7259C85.6061 23.1698 85.9123 22.6889 86.3052 22.2834C86.6981 21.8663 87.1603 21.5361 87.6919 21.2928C88.235 21.0495 88.8301 20.9278 89.4772 20.9278C90.159 20.9278 90.7657 21.0437 91.2972 21.2754C91.8288 21.4955 92.2737 21.8084 92.6319 22.2139C92.9901 22.6078 93.2617 23.0771 93.4465 23.6217C93.6314 24.1662 93.7239 24.7571 93.7239 25.3944C93.7239 25.4755 93.7239 25.545 93.7239 25.6029C93.7123 25.6725 93.7065 25.7362 93.7065 25.7941C93.695 25.8521 93.6892 25.9158 93.6892 25.9853H87.2932C87.3394 26.3329 87.4319 26.6341 87.5705 26.889C87.7208 27.1324 87.8999 27.3409 88.1079 27.5147C88.3274 27.6769 88.5643 27.7986 88.8185 27.8797C89.0728 27.9492 89.3328 27.984 89.5985 27.984C90.1185 27.984 90.5461 27.8681 90.8812 27.6364C91.2279 27.393 91.4994 27.0918 91.6959 26.7326L93.5852 27.6711ZM91.5225 24.369C91.511 24.2184 91.459 24.0504 91.3665 23.865C91.2857 23.6796 91.1585 23.5058 90.9852 23.3436C90.8234 23.1814 90.6154 23.0481 90.3612 22.9439C90.1185 22.8396 89.8239 22.7874 89.4772 22.7874C88.9919 22.7874 88.5643 22.9265 88.1945 23.2045C87.8248 23.4826 87.5648 23.8708 87.4145 24.369H91.5225Z" fill="white"/>
</g>
<defs>
<clipPath id="clip0_7121_16242">
<rect width="104" height="40" fill="white" transform="translate(0.664062)"/>
</clipPath>
</defs>
</svg>
